<svg width="15" height="19" viewBox="0 0 15 19" fill="none" xmlns="http://www.w3.org/2000/svg">
<path d="M11.25 19H3.75C1.68225 19 0 17.2243 0 15.0417V3.95833C0 1.77571 1.68225 0 3.75 0H11.25C13.3177 0 15 1.77571 15 3.95833V15.0417C15 17.2243 13.3177 19 11.25 19ZM3.75 1.58333C2.5095 1.58333 1.5 2.64892 1.5 3.95833V15.0417C1.5 16.3511 2.5095 17.4167 3.75 17.4167H11.25C12.4905 17.4167 13.5 16.3511 13.5 15.0417V3.95833C13.5 2.64892 12.4905 1.58333 11.25 1.58333H3.75ZM12 4.75C12 4.54004 11.921 4.33867 11.7803 4.19021C11.6397 4.04174 11.4489 3.95833 11.25 3.95833H8.25C8.05109 3.95833 7.86032 4.04174 7.71967 4.19021C7.57902 4.33867 7.5 4.54004 7.5 4.75C7.5 4.95996 7.57902 5.16133 7.71967 5.30979C7.86032 5.45826 8.05109 5.54167 8.25 5.54167H11.25C11.4489 5.54167 11.6397 5.45826 11.7803 5.30979C11.921 5.16133 12 4.95996 12 4.75ZM12 9.5C12 9.29004 11.921 9.08867 11.7803 8.94021C11.6397 8.79174 11.4489 8.70833 11.25 8.70833H8.25C8.05109 8.70833 7.86032 8.79174 7.71967 8.94021C7.57902 9.08867 7.5 9.29004 7.5 9.5C7.5 9.70996 7.57902 9.91133 7.71967 10.0598C7.86032 10.2083 8.05109 10.2917 8.25 10.2917H11.25C11.4489 10.2917 11.6397 10.2083 11.7803 10.0598C11.921 9.91133 12 9.70996 12 9.5ZM12 14.25C12 14.04 11.921 13.8387 11.7803 13.6902C11.6397 13.5417 11.4489 13.4583 11.25 13.4583H8.25C8.05109 13.4583 7.86032 13.5417 7.71967 13.6902C7.57902 13.8387 7.5 14.04 7.5 14.25C7.5 14.46 7.57902 14.6613 7.71967 14.8098C7.86032 14.9583 8.05109 15.0417 8.25 15.0417H11.25C11.4489 15.0417 11.6397 14.9583 11.7803 14.8098C11.921 14.6613 12 14.46 12 14.25ZM6 5.54167V3.95833C6 3.74837 5.92098 3.54701 5.78033 3.39854C5.63968 3.25007 5.44891 3.16667 5.25 3.16667H3.75C3.55109 3.16667 3.36032 3.25007 3.21967 3.39854C3.07902 3.54701 3 3.74837 3 3.95833V5.54167C3 5.75163 3.07902 5.95299 3.21967 6.10146C3.36032 6.24993 3.55109 6.33333 3.75 6.33333H5.25C5.44891 6.33333 5.63968 6.24993 5.78033 6.10146C5.92098 5.95299 6 5.75163 6 5.54167ZM6 10.2917V8.70833C6 8.49837 5.92098 8.29701 5.78033 8.14854C5.63968 8.00007 5.44891 7.91667 5.25 7.91667H3.75C3.55109 7.91667 3.36032 8.00007 3.21967 8.14854C3.07902 8.29701 3 8.49837 3 8.70833V10.2917C3 10.5016 3.07902 10.703 3.21967 10.8515C3.36032 10.9999 3.55109 11.0833 3.75 11.0833H5.25C5.44891 11.0833 5.63968 10.9999 5.78033 10.8515C5.92098 10.703 6 10.5016 6 10.2917ZM6 15.0417V13.4583C6 13.2484 5.92098 13.047 5.78033 12.8985C5.63968 12.7501 5.44891 12.6667 5.25 12.6667H3.75C3.55109 12.6667 3.36032 12.7501 3.21967 12.8985C3.07902 13.047 3 13.2484 3 13.4583V15.0417C3 15.2516 3.07902 15.453 3.21967 15.6015C3.36032 15.7499 3.55109 15.8333 3.75 15.8333H5.25C5.44891 15.8333 5.63968 15.7499 5.78033 15.6015C5.92098 15.453 6 15.2516 6 15.0417Z" fill="#727272"/>
</svg>
