<svg width="15" height="13" viewBox="0 0 15 13" fill="none" xmlns="http://www.w3.org/2000/svg">
<path d="M13.3927 1.28395C11.6808 -0.427984 8.89521 -0.427984 7.18306 1.28395L1.86037 6.60662C0.637622 7.8295 0.637703 9.81923 1.86053 11.042C2.472 11.6535 3.27493 11.9592 4.07818 11.9591C4.88122 11.9591 5.68458 11.6534 6.29594 11.042L11.1749 6.16293C11.5304 5.80752 11.7262 5.33496 11.7262 4.83233C11.7262 4.32968 11.5305 3.85715 11.175 3.50163C10.4412 2.76794 9.24732 2.76797 8.51371 3.50177L5.32304 6.69236C5.07808 6.93729 5.07808 7.33446 5.32298 7.57944C5.56791 7.82445 5.96509 7.82437 6.21007 7.57944L9.40077 4.38883C9.64535 4.14425 10.0432 4.14419 10.2879 4.38878C10.3463 4.44689 10.3926 4.51601 10.4241 4.59214C10.4557 4.66827 10.4718 4.7499 10.4716 4.83231C10.4716 4.99984 10.4064 5.15732 10.2879 5.27584L5.40886 10.1549C4.67511 10.8886 3.48131 10.8887 2.74762 10.155C2.01393 9.42122 2.01387 8.22737 2.74748 7.49362L8.07015 2.17104C9.29308 0.94816 11.2828 0.94816 12.5056 2.17104C13.098 2.76338 13.4243 3.551 13.4243 4.38872C13.4243 5.22645 13.098 6.01406 12.5056 6.60646L7.18298 11.9292C6.93805 12.1742 6.93805 12.5713 7.18303 12.8163C7.24121 12.8746 7.31035 12.9209 7.38646 12.9524C7.46258 12.9839 7.54418 13.0001 7.62656 13C7.70895 13.0001 7.79055 12.9839 7.86667 12.9524C7.94279 12.9209 8.01193 12.8746 8.07012 12.8163L13.3926 7.49357C14.222 6.66427 14.6787 5.56163 14.6788 4.38875C14.6788 3.2159 14.222 2.11326 13.3927 1.28395Z" fill="#31C6FE"/>
</svg>
