<svg width="17" height="22" viewBox="0 0 17 22" fill="none" xmlns="http://www.w3.org/2000/svg">
<path d="M11.4141 6.92766C11.8328 6.30113 12.0563 5.56452 12.0565 4.81094L11.4141 6.92766ZM11.4141 6.92766C10.9953 7.55421 10.4002 8.04251 9.70391 8.33083M11.4141 6.92766L9.70391 8.33083M9.70391 8.33083C9.00764 8.61915 8.24152 8.69454 7.50242 8.54746M9.70391 8.33083L7.50242 8.54746M7.50242 8.54746C6.76331 8.40038 6.08442 8.03743 5.55158 7.50452M7.50242 8.54746L5.55158 7.50452M5.55158 7.50452C5.01874 6.97161 4.65589 6.29267 4.5089 5.55355M5.55158 7.50452L4.5089 5.55355M4.5089 5.55355C4.36192 4.81442 4.43741 4.04831 4.72582 3.35209M4.5089 5.55355L4.72582 3.35209M4.72582 3.35209C5.01423 2.65586 5.50262 2.06079 6.12922 1.64213M4.72582 3.35209L6.12922 1.64213M6.12922 1.64213C6.7558 1.22347 7.49245 1.00001 8.24603 1L6.12922 1.64213ZM9.70429 1.29017C9.24199 1.09864 8.7465 1.00004 8.24609 1L9.70429 1.29017ZM9.70429 1.29017C10.1666 1.4817 10.5867 1.76242 10.9405 2.1163L11.6477 1.40924M9.70429 1.29017L11.6477 1.40924M11.6477 1.40924L10.9405 2.1163C11.2943 2.47018 11.575 2.89029 11.7665 3.35263M11.6477 1.40924L11.7665 3.35263M11.7665 3.35263L12.6904 2.97001M11.7665 3.35263L12.6904 2.97001M12.6904 2.97001L11.7665 3.35263C11.9579 3.81496 12.0565 4.31047 12.0565 4.81087L12.6904 2.97001ZM1.74044 14.9055L1.74144 14.9044C2.56724 14.002 3.57208 13.2816 4.69184 12.7893C5.81159 12.2969 7.02169 12.0434 8.24491 12.0448L8.24728 12.0448C9.4705 12.0434 10.6806 12.2969 11.8003 12.7893C12.9201 13.2816 13.9249 14.002 14.7507 14.9044L14.7517 14.9055C15.9479 16.2087 15.6577 18.2873 14.1465 19.219C12.3714 20.3089 10.3291 20.8859 8.24609 20.8859C6.16308 20.8859 4.12078 20.3089 2.34568 19.219C0.834499 18.2873 0.544255 16.2087 1.74044 14.9055Z" stroke="#29CCFE" stroke-width="2"/>
</svg>
