<svg width="21" height="21" viewBox="0 0 21 21" fill="none" xmlns="http://www.w3.org/2000/svg">
<path d="M16.625 1.75H15.75V0.875C15.75 0.642936 15.6578 0.420376 15.4937 0.256282C15.3296 0.0921872 15.1071 0 14.875 0C14.6429 0 14.4204 0.0921872 14.2563 0.256282C14.0922 0.420376 14 0.642936 14 0.875V1.75H7V0.875C7 0.642936 6.90781 0.420376 6.74372 0.256282C6.57962 0.0921872 6.35706 0 6.125 0C5.89294 0 5.67038 0.0921872 5.50628 0.256282C5.34219 0.420376 5.25 0.642936 5.25 0.875V1.75H4.375C1.96263 1.75 0 3.71263 0 6.125V16.625C0 19.0374 1.96263 21 4.375 21H16.625C19.0374 21 21 19.0374 21 16.625V6.125C21 3.71263 19.0374 1.75 16.625 1.75ZM4.375 3.5H16.625C18.0723 3.5 19.25 4.67775 19.25 6.125V7H1.75V6.125C1.75 4.67775 2.92775 3.5 4.375 3.5ZM16.625 19.25H4.375C2.92775 19.25 1.75 18.0723 1.75 16.625V8.75H19.25V16.625C19.25 18.0723 18.0723 19.25 16.625 19.25ZM16.625 12.25C16.625 12.4821 16.5328 12.7046 16.3687 12.8687C16.2046 13.0328 15.9821 13.125 15.75 13.125H5.25C5.01794 13.125 4.79538 13.0328 4.63128 12.8687C4.46719 12.7046 4.375 12.4821 4.375 12.25C4.375 12.0179 4.46719 11.7954 4.63128 11.6313C4.79538 11.4672 5.01794 11.375 5.25 11.375H15.75C15.9821 11.375 16.2046 11.4672 16.3687 11.6313C16.5328 11.7954 16.625 12.0179 16.625 12.25ZM10.5 15.75C10.5 15.9821 10.4078 16.2046 10.2437 16.3687C10.0796 16.5328 9.85706 16.625 9.625 16.625H5.25C5.01794 16.625 4.79538 16.5328 4.63128 16.3687C4.46719 16.2046 4.375 15.9821 4.375 15.75C4.375 15.5179 4.46719 15.2954 4.63128 15.1313C4.79538 14.9672 5.01794 14.875 5.25 14.875H9.625C9.85706 14.875 10.0796 14.9672 10.2437 15.1313C10.4078 15.2954 10.5 15.5179 10.5 15.75Z" fill="#727272"/>
</svg>
