<svg width="19" height="19" viewBox="0 0 19 19" fill="none" xmlns="http://www.w3.org/2000/svg">
<path d="M8.48216 9.5C8.48216 9.76995 8.58939 10.0288 8.78028 10.2197C8.97116 10.4106 9.23005 10.5179 9.5 10.5179C9.76995 10.5179 10.0288 10.4106 10.2197 10.2197C10.4106 10.0288 10.5178 9.76995 10.5178 9.5C10.5178 9.23005 10.4106 8.97115 10.2197 8.78027C10.0288 8.58938 9.76995 8.48214 9.5 8.48214C9.23005 8.48214 8.97116 8.58938 8.78028 8.78027C8.58939 8.97115 8.48216 9.23005 8.48216 9.5ZM12.7232 9.5C12.7232 9.76995 12.8304 10.0288 13.0213 10.2197C13.2122 10.4106 13.4711 10.5179 13.741 10.5179C14.011 10.5179 14.2699 10.4106 14.4607 10.2197C14.6516 10.0288 14.7589 9.76995 14.7589 9.5C14.7589 9.23005 14.6516 8.97115 14.4607 8.78027C14.2699 8.58938 14.011 8.48214 13.741 8.48214C13.4711 8.48214 13.2122 8.58938 13.0213 8.78027C12.8304 8.97115 12.7232 9.23005 12.7232 9.5ZM4.24114 9.5C4.24114 9.76995 4.34838 10.0288 4.53926 10.2197C4.73014 10.4106 4.98903 10.5179 5.25898 10.5179C5.52893 10.5179 5.78783 10.4106 5.97871 10.2197C6.16959 10.0288 6.27683 9.76995 6.27683 9.5C6.27683 9.23005 6.16959 8.97115 5.97871 8.78027C5.78783 8.58938 5.52893 8.48214 5.25898 8.48214C4.98903 8.48214 4.73014 8.58938 4.53926 8.78027C4.34838 8.97115 4.24114 9.23005 4.24114 9.5ZM18.2619 5.81875C17.7827 4.68002 17.0957 3.65792 16.2199 2.78002C15.3503 1.9072 14.3179 1.21342 13.1812 0.737946C12.0149 0.248103 10.7765 0 9.5 0H9.45759C8.17256 0.00636161 6.92782 0.260826 5.7573 0.761272C4.63037 1.24162 3.60767 1.93664 2.74618 2.80759C1.87889 3.68337 1.19821 4.70123 0.727455 5.83571C0.239738 7.01049 -0.00624123 8.25949 0.000120302 9.54453C0.00731572 11.0172 0.355712 12.4681 1.01796 13.7835V17.0067C1.01796 17.2654 1.12073 17.5135 1.30366 17.6964C1.48659 17.8794 1.7347 17.9821 1.9934 17.9821H5.21869C6.53403 18.6444 7.98496 18.9928 9.45759 19H9.50212C10.7723 19 12.0043 18.754 13.1642 18.2727C14.2952 17.8029 15.3237 17.1172 16.1923 16.2539C17.0681 15.3866 17.7573 14.373 18.2386 13.2427C18.7391 12.0722 18.9935 10.8275 18.9999 9.54241C19.0062 8.251 18.756 6.99777 18.2619 5.81875ZM15.0579 15.1067C13.5714 16.5783 11.5993 17.3884 9.5 17.3884H9.46395C8.18529 17.382 6.9151 17.0639 5.79335 16.466L5.61523 16.3705H2.62955V13.3848L2.53413 13.2067C1.93615 12.0849 1.61807 10.8147 1.61171 9.53605C1.60323 7.42188 2.41114 5.43705 3.89338 3.94208C5.37349 2.4471 7.35193 1.62009 9.46607 1.61161H9.50212C10.5624 1.61161 11.5908 1.8173 12.5599 2.22444C13.5056 2.62098 14.3538 3.19141 15.0833 3.92087C15.8106 4.64821 16.3832 5.49855 16.7797 6.44431C17.1911 7.424 17.3968 8.46306 17.3925 9.53605C17.3798 11.6481 16.5507 13.6266 15.0579 15.1067Z" fill="#727272"/>
</svg>
