<svg width="18" height="20" viewBox="0 0 18 20" fill="none" xmlns="http://www.w3.org/2000/svg">
<path d="M9.00115 0C4.03892 0 9.38653e-05 4.03715 9.38653e-05 8.99908C-0.0145388 12.1977 1.68255 15.1596 4.44908 16.7652V19.2002C4.44953 19.3049 4.47792 19.4076 4.53132 19.4977C4.58472 19.5878 4.66119 19.662 4.75285 19.7127C4.8446 19.7632 4.94818 19.7883 5.05288 19.7854C5.15759 19.7824 5.2596 19.7516 5.3484 19.6961L8.12297 17.9559C8.41298 17.9839 8.70769 17.9982 9.00093 17.9982C13.9709 17.9982 18 13.9691 18 8.99908C18 4.0291 13.9709 0 9.00093 0L9.00115 0ZM9.00115 16.8275C8.68449 16.8275 8.36843 16.8087 8.05405 16.771C7.92048 16.7549 7.78544 16.7851 7.6714 16.8564L5.61969 18.1422V16.4222C5.62003 16.3164 5.59162 16.2125 5.5375 16.1216C5.48338 16.0307 5.40558 15.9562 5.3124 15.9061C1.82288 14.0444 0.269041 9.87352 1.69002 6.18251C3.1107 2.49179 7.06034 0.439492 10.8974 1.39837C14.7342 2.35717 17.254 6.02616 16.7719 9.9513C16.2895 13.8767 12.9563 16.8266 9.00144 16.8278L9.00115 16.8275Z" fill="#29CCFE"/>
<path d="M9.31109 3.23316C9.19428 3.19572 9.06868 3.19572 8.95186 3.23316L3.90045 4.86353C3.78294 4.90165 3.68061 4.97618 3.60826 5.07633C3.53592 5.17648 3.49732 5.29705 3.49806 5.42059V12.3208C3.49734 12.4443 3.53594 12.5648 3.60829 12.665C3.68063 12.7651 3.78295 12.8396 3.90045 12.8778L8.95384 14.5083C9.07017 14.5457 9.19528 14.5457 9.31197 14.5083L14.3634 12.8778C14.4808 12.8395 14.5829 12.7649 14.6552 12.6648C14.7274 12.5647 14.7659 12.4442 14.7652 12.3208V5.42059C14.7659 5.29706 14.7273 5.17652 14.6549 5.07638C14.5826 4.97624 14.4803 4.9017 14.3628 4.86353L9.31109 3.23316ZM9.13162 4.40516L12.2799 5.42059L9.13162 6.43602L5.98327 5.42052L9.13162 4.40516ZM4.66867 6.22451L8.47316 7.45343V13.1236L4.66867 11.8947V6.22451ZM9.64377 13.171V7.50084L13.5946 6.22451V11.8947L9.64377 13.171Z" fill="#29CCFE"/>
</svg>
