<svg width="19" height="20" viewBox="0 0 19 20" fill="none" xmlns="http://www.w3.org/2000/svg">
<path fill-rule="evenodd" clip-rule="evenodd" d="M0 10C0 10.2411 0.0957791 10.4723 0.266267 10.6428C0.436754 10.8133 0.667985 10.9091 0.909091 10.9091H13.26L8.44727 15.72C8.27657 15.8907 8.18067 16.1222 8.18067 16.3636C8.18067 16.605 8.27657 16.8366 8.44727 17.0073C8.61798 17.178 8.8495 17.2739 9.09091 17.2739C9.33232 17.2739 9.56384 17.178 9.73455 17.0073L16.0982 10.6436C16.1827 10.5592 16.2497 10.4588 16.2952 10.3484C16.3408 10.2379 16.364 10.1195 16.3636 10V19.0909C16.3636 19.332 16.4594 19.5632 16.6299 19.7337C16.8004 19.9042 17.0316 20 17.2727 20C17.5138 20 17.7451 19.9042 17.9156 19.7337C18.086 19.5632 18.1818 19.332 18.1818 19.0909V0.909091C18.1818 0.667985 18.086 0.436754 17.9156 0.266267C17.7451 0.0957791 17.5138 0 17.2727 0C17.0316 0 16.8004 0.0957791 16.6299 0.266267C16.4594 0.436754 16.3636 0.667985 16.3636 0.909091V10C16.364 9.88051 16.3408 9.76212 16.2952 9.65165C16.2497 9.54118 16.1827 9.44082 16.0982 9.35636L9.73455 2.99273C9.65002 2.9082 9.54968 2.84116 9.43924 2.79541C9.32881 2.74967 9.21044 2.72612 9.09091 2.72612C8.97138 2.72612 8.85301 2.74967 8.74258 2.79541C8.63214 2.84116 8.5318 2.9082 8.44727 2.99273C8.36275 3.07725 8.2957 3.17759 8.24996 3.28803C8.20421 3.39847 8.18067 3.51683 8.18067 3.63636C8.18067 3.7559 8.20421 3.87426 8.24996 3.9847C8.2957 4.09513 8.36275 4.19548 8.44727 4.28L13.26 9.09091H0.909091C0.667985 9.09091 0.436754 9.18669 0.266267 9.35718C0.0957791 9.52766 0 9.75889 0 10Z" fill="#474C56"/>
</svg>
