<svg width="19" height="20" viewBox="0 0 19 20" fill="none" xmlns="http://www.w3.org/2000/svg">
<path fill-rule="evenodd" clip-rule="evenodd" d="M18.1818 10C18.1818 10.2411 18.086 10.4723 17.9155 10.6428C17.745 10.8133 17.5138 10.9091 17.2727 10.9091H4.92176L9.73449 15.72C9.90519 15.8907 10.0011 16.1222 10.0011 16.3636C10.0011 16.605 9.90519 16.8366 9.73449 17.0073C9.56379 17.178 9.33226 17.2739 9.09085 17.2739C8.84944 17.2739 8.61792 17.178 8.44722 17.0073L2.08358 10.6436C1.99905 10.5592 1.93208 10.4588 1.88651 10.3484C1.84096 10.2379 1.81771 10.1195 1.81812 10V19.0909C1.81812 19.332 1.72235 19.5632 1.55186 19.7337C1.38137 19.9042 1.15014 20 0.909035 20C0.667929 20 0.436697 19.9042 0.266209 19.7337C0.0957203 19.5632 -5.72205e-05 19.332 -5.72205e-05 19.0909V0.909091C-5.72205e-05 0.667985 0.0957203 0.436754 0.266209 0.266267C0.436697 0.0957791 0.667929 0 0.909035 0C1.15014 0 1.38137 0.0957791 1.55186 0.266267C1.72235 0.436754 1.81812 0.667985 1.81812 0.909091V10C1.81771 9.88051 1.84096 9.76212 1.88651 9.65165C1.93208 9.54118 1.99905 9.44082 2.08358 9.35636L8.44722 2.99273C8.53174 2.9082 8.63208 2.84116 8.74252 2.79541C8.85295 2.74967 8.97132 2.72612 9.09085 2.72612C9.21039 2.72612 9.32875 2.74967 9.43919 2.79541C9.54962 2.84116 9.64997 2.9082 9.73449 2.99273C9.81901 3.07725 9.88606 3.17759 9.9318 3.28803C9.97755 3.39847 10.0011 3.51683 10.0011 3.63636C10.0011 3.7559 9.97755 3.87426 9.9318 3.9847C9.88606 4.09513 9.81901 4.19548 9.73449 4.28L4.92176 9.09091H17.2727C17.5138 9.09091 17.745 9.18669 17.9155 9.35718C18.086 9.52766 18.1818 9.75889 18.1818 10Z" fill="#474C56"/>
</svg>
