<svg width="15" height="15" viewBox="0 0 15 15" fill="none" xmlns="http://www.w3.org/2000/svg">
<path d="M7.99476 9.50201L4.99609 10.0418L5.49587 7.00312L11.2233 1.29567C11.3162 1.20198 11.4268 1.12762 11.5486 1.07687C11.6704 1.02613 11.801 1 11.933 1C12.065 1 12.1956 1.02613 12.3174 1.07687C12.4392 1.12762 12.5498 1.20198 12.6427 1.29567L13.7022 2.35519C13.7959 2.44812 13.8703 2.55867 13.921 2.68047C13.9718 2.80228 13.9979 2.93292 13.9979 3.06488C13.9979 3.19683 13.9718 3.32748 13.921 3.44928C13.8703 3.57109 13.7959 3.68164 13.7022 3.77456L7.99476 9.50201Z" stroke="#42B6FE" stroke-width="1.5" stroke-linecap="round" stroke-linejoin="round"/>
<path d="M12.4949 10.0025V13.0012C12.4949 13.2663 12.3896 13.5205 12.2021 13.708C12.0147 13.8954 11.7604 14.0007 11.4953 14.0007H1.99955C1.73446 14.0007 1.48022 13.8954 1.29276 13.708C1.10531 13.5205 1 13.2663 1 13.0012V3.50541C1 3.24032 1.10531 2.98607 1.29276 2.79862C1.48022 2.61117 1.73446 2.50586 1.99955 2.50586H4.99822" stroke="#42B6FE" stroke-width="1.5" stroke-linecap="round" stroke-linejoin="round"/>
</svg>
