<svg width="12" height="12" viewBox="0 0 12 12" fill="none" xmlns="http://www.w3.org/2000/svg">
<path d="M3.47242 4.75C3.49198 3.105 4.95772 3.105 4.97729 4.75C4.95772 6.395 3.49198 6.395 3.47242 4.75ZM7.73621 6C8.7214 5.9865 8.7214 3.5135 7.73621 3.5C6.75102 3.5135 6.75102 5.9865 7.73621 6ZM12 6C11.9983 7.59077 11.3635 9.1159 10.235 10.2407C9.10654 11.3656 7.57646 11.9983 5.98053 12C-1.99527 11.7 -1.99175 0.3 5.98053 0C7.57646 0.00172054 9.10654 0.634414 10.235 1.75926C11.3635 2.88411 11.9983 4.40923 12 6ZM10.9968 6C10.9953 4.67436 10.4663 3.40344 9.52592 2.46607C8.58552 1.52871 7.31047 1.00146 5.98053 1C-0.664963 1.25 -0.663458 10.75 5.98053 11C7.31047 10.9985 8.58552 10.4713 9.52592 9.53393C10.4663 8.59656 10.9953 7.32564 10.9968 6ZM8.3828 7.012C7.61321 7.30109 6.80224 7.46583 5.98053 7.5C5.15696 7.46642 4.34408 7.30167 3.57274 7.012C3.47585 6.99119 3.37495 6.99946 3.28277 7.03577C3.19058 7.07207 3.11126 7.13478 3.0548 7.21598C2.99835 7.29718 2.96729 7.39324 2.96555 7.49202C2.96381 7.5908 2.99147 7.68787 3.04504 7.771C3.34055 8.28936 3.76695 8.72165 4.28191 9.02495C4.79686 9.32826 5.38245 9.49203 5.98053 9.5C6.57785 9.49161 7.16259 9.32762 7.67666 9.02431C8.19074 8.721 8.61627 8.28893 8.91101 7.771C8.96463 7.68784 8.99232 7.5907 8.99057 7.49185C8.98883 7.39301 8.95772 7.2969 8.9012 7.21567C8.84467 7.13445 8.76525 7.07174 8.67298 7.03549C8.58071 6.99924 8.47973 6.99106 8.3828 7.012Z" fill="#31C6FE"/>
</svg>
