<svg width="25" height="19" viewBox="0 0 25 19" fill="none" xmlns="http://www.w3.org/2000/svg">
<path fill-rule="evenodd" clip-rule="evenodd" d="M7.42114 3.87493C7.14361 4.95316 6.16484 5.74989 4.99995 5.74989C3.61925 5.74989 2.5 4.63064 2.5 3.24995C2.5 1.86925 3.61925 0.75 4.99995 0.75C6.16484 0.75 7.14361 1.54673 7.42114 2.62496H24.3749C24.5407 2.62496 24.6997 2.69081 24.8169 2.80801C24.9341 2.92522 24.9999 3.08419 24.9999 3.24995C24.9999 3.4157 24.9341 3.57467 24.8169 3.69188C24.6997 3.80909 24.5407 3.87493 24.3749 3.87493H7.42114ZM6.24992 3.24995C6.24992 3.49717 6.17661 3.73884 6.03926 3.9444C5.90191 4.14995 5.70669 4.31016 5.47829 4.40477C5.24989 4.49938 4.99856 4.52413 4.75609 4.4759C4.51362 4.42767 4.29089 4.30862 4.11608 4.13381C3.94127 3.959 3.82222 3.73628 3.77399 3.4938C3.72576 3.25133 3.75051 3.00001 3.84512 2.7716C3.93973 2.5432 4.09994 2.34798 4.3055 2.21063C4.51106 2.07328 4.75273 1.99997 4.99995 1.99997C5.33146 1.99997 5.6494 2.13167 5.88381 2.36608C6.11823 2.6005 6.24992 2.91843 6.24992 3.24995Z" fill="#42B6FE"/>
<path d="M0.624987 3.87497H2.5787C2.52725 3.67526 2.49995 3.46579 2.49995 3.24999C2.49995 3.03418 2.52725 2.82471 2.5787 2.625H0.624987C0.45923 2.625 0.300262 2.69085 0.183054 2.80805C0.0658466 2.92526 0 3.08423 0 3.24999C0 3.41574 0.0658466 3.57471 0.183054 3.69192C0.300262 3.80913 0.45923 3.87497 0.624987 3.87497Z" fill="#42B6FE"/>
<path fill-rule="evenodd" clip-rule="evenodd" d="M14.9212 15.125C14.6437 14.0467 13.6648 13.25 12.5 13.25C11.3352 13.25 10.3562 14.0467 10.0788 15.125H0.624987C0.45923 15.125 0.300262 15.1908 0.183054 15.308C0.0658467 15.4252 3.72521e-08 15.5842 3.72521e-08 15.7499C3.72521e-08 15.9157 0.0658467 16.0747 0.183054 16.1919C0.300262 16.3091 0.45923 16.3749 0.624987 16.3749H10.0787C10.3562 17.4532 11.3351 18.2499 12.4999 18.2499C13.6646 18.2499 14.6437 17.4532 14.9211 16.3749H24.3747C24.5383 16.3716 24.694 16.3043 24.8085 16.1874C24.9229 16.0706 24.987 15.9135 24.987 15.7499C24.987 15.5864 24.9229 15.4293 24.8085 15.3125C24.694 15.1956 24.5383 15.1283 24.3747 15.125H14.9212ZM12.5 16.9999C13.1904 16.9999 13.75 16.4404 13.75 15.7499C13.75 15.0595 13.1904 14.5 12.5 14.5C11.8096 14.5 11.25 15.0595 11.25 15.7499C11.25 16.4404 11.8096 16.9999 12.5 16.9999ZM22.4212 8.87496C22.1436 7.79673 21.1647 7 20 7C18.8352 7 17.8562 7.79673 17.5788 8.87496H0.624987C0.45923 8.87496 0.300262 8.94081 0.183054 9.05802C0.0658466 9.17522 0 9.33419 0 9.49995C0 9.6657 0.0658466 9.82467 0.183054 9.94188C0.300262 10.0591 0.45923 10.1249 0.624987 10.1249H17.5788C17.8563 11.2032 18.8352 11.9999 20 11.9999C21.1647 11.9999 22.1438 11.2032 22.4212 10.1249H24.3749C24.5384 10.1216 24.6941 10.0543 24.8086 9.93741C24.923 9.82057 24.9872 9.66352 24.9872 9.49995C24.9872 9.33638 24.923 9.17933 24.8086 9.06249C24.6941 8.94564 24.5384 8.87832 24.3749 8.87496H22.4212ZM20 10.7499C20.6904 10.7499 21.2499 10.1904 21.2499 9.49995C21.2499 8.80953 20.6903 8.24997 20 8.24997C19.3096 8.24997 18.75 8.80953 18.75 9.49995C18.75 10.1904 19.3096 10.7499 20 10.7499Z" fill="#42B6FE"/>
</svg>
