<svg width="21" height="18" viewBox="0 0 21 18" fill="none" xmlns="http://www.w3.org/2000/svg">
<path d="M20.5637 7.67996C20.3514 7.38676 20.0714 7.14912 19.7476 6.98723C19.4238 6.82533 19.0658 6.74396 18.7038 6.75002H18.4638V5.25012C18.4639 4.95084 18.4042 4.65455 18.2884 4.37861C18.1725 4.10267 18.0027 3.85262 17.789 3.6431C17.5753 3.43359 17.322 3.26881 17.0438 3.15843C16.7656 3.04805 16.4682 2.99427 16.169 3.00026H11.3093C11.1274 2.99918 10.951 2.9386 10.8068 2.82777L7.807 0.487919C7.39643 0.171779 6.89278 0.000380704 6.3746 0.000450048H2.29486C1.99564 -0.00553556 1.69823 0.0482376 1.42005 0.158621C1.14187 0.269003 0.888507 0.433778 0.674799 0.643295C0.461091 0.852813 0.291332 1.10286 0.175463 1.3788C0.0595939 1.65474 -5.72199e-05 1.95103 2.64221e-06 2.25031V15.7494C-0.000648845 16.1646 0.11919 16.571 0.344981 16.9194C0.552497 17.2493 0.840107 17.5213 1.18104 17.7101C1.52197 17.8989 1.90513 17.9984 2.29486 17.9993H16.5439C17.0336 18.0115 17.5139 17.8636 17.9118 17.578C18.3098 17.2924 18.6036 16.8847 18.7488 16.4169L20.8937 9.66733C20.9969 9.33321 21.0208 8.97963 20.9636 8.63465C20.9063 8.28967 20.7694 7.96279 20.5637 7.67996ZM1.49991 2.25031C1.49972 2.14792 1.52051 2.04658 1.56098 1.95252C1.60145 1.85847 1.66075 1.77371 1.73523 1.70344C1.8097 1.63318 1.89778 1.57892 1.99402 1.54399C2.09027 1.50906 2.19265 1.49421 2.29486 1.50035H6.3746C6.55891 1.50034 6.7381 1.56095 6.88456 1.67284L9.88437 4.01269C10.2921 4.32878 10.7934 4.50027 11.3093 4.50016H16.169C16.2712 4.49402 16.3736 4.50887 16.4698 4.5438C16.566 4.57873 16.6541 4.63299 16.7286 4.70325C16.8031 4.77351 16.8624 4.85828 16.9029 4.95233C16.9433 5.04638 16.9641 5.14773 16.9639 5.25012V6.75002H4.96469C4.47883 6.74274 4.00366 6.89295 3.61028 7.17819C3.21689 7.46343 2.92643 7.86836 2.78233 8.33242L1.49991 12.4047V2.25031ZM19.4988 9.21736L17.3539 15.9669C17.3058 16.1264 17.2059 16.2652 17.0701 16.3616C16.9343 16.458 16.7703 16.5065 16.6039 16.4994H2.35485C2.18571 16.499 2.02077 16.4467 1.88238 16.3494L4.28223 8.78239C4.33037 8.62297 4.43021 8.4841 4.566 8.38769C4.70179 8.29128 4.8658 8.24281 5.03218 8.24992H18.7038C18.8302 8.24905 18.955 8.27776 19.0683 8.33375C19.1816 8.38975 19.2802 8.47148 19.3563 8.5724C19.4277 8.6619 19.4776 8.76655 19.5023 8.87835C19.527 8.99015 19.5258 9.10611 19.4988 9.21736Z" fill="#29CCFE"/>
</svg>
