<svg width="12" height="12" viewBox="0 0 12 12" fill="none" xmlns="http://www.w3.org/2000/svg">
<path d="M6 0C2.6838 0 0 2.6835 0 6C0 9.31615 2.6835 12 6 12C9.3162 12 12 9.3165 12 6C12 2.68385 9.3165 0 6 0Z" fill="#31C6FE"/>
<path d="M6.00014 5.00144C5.64473 5.00144 5.39201 5.15153 5.39201 5.37267V8.38171C5.39201 8.57128 5.64473 8.76079 6.00014 8.76079C6.33975 8.76079 6.61615 8.57128 6.61615 8.38171V5.37262C6.61615 5.15151 6.33975 5.00144 6.00014 5.00144ZM6.00014 3.14545C5.63684 3.14545 5.35254 3.40607 5.35254 3.70619C5.35254 4.00633 5.63686 4.27485 6.00014 4.27485C6.35555 4.27485 6.63989 4.00633 6.63989 3.70619C6.63989 3.40607 6.35552 3.14545 6.00014 3.14545Z" fill="white"/>
</svg>
