<svg width="15" height="11" viewBox="0 0 15 11" fill="none" xmlns="http://www.w3.org/2000/svg">
<path fill-rule="evenodd" clip-rule="evenodd" d="M0 0.780488C0 0.57349 0.0822297 0.37497 0.2286 0.2286C0.374969 0.0822299 0.57349 0 0.780488 0H13.2683C13.4753 0 13.6738 0.0822299 13.8202 0.2286C13.9666 0.37497 14.0488 0.57349 14.0488 0.780488C14.0488 0.987486 13.9666 1.18601 13.8202 1.33238C13.6738 1.47875 13.4753 1.56098 13.2683 1.56098H0.780488C0.57349 1.56098 0.374969 1.47875 0.2286 1.33238C0.0822297 1.18601 0 0.987486 0 0.780488ZM0 5.46341C0 5.25642 0.0822297 5.0579 0.2286 4.91153C0.374969 4.76516 0.57349 4.68293 0.780488 4.68293H8.58537C8.79236 4.68293 8.99088 4.76516 9.13725 4.91153C9.28362 5.0579 9.36585 5.25642 9.36585 5.46341C9.36585 5.67041 9.28362 5.86893 9.13725 6.0153C8.99088 6.16167 8.79236 6.2439 8.58537 6.2439H0.780488C0.57349 6.2439 0.374969 6.16167 0.2286 6.0153C0.0822297 5.86893 0 5.67041 0 5.46341ZM0 10.1463C0 9.93934 0.0822297 9.74082 0.2286 9.59445C0.374969 9.44808 0.57349 9.36585 0.780488 9.36585H4.68293C4.88993 9.36585 5.08844 9.44808 5.23481 9.59445C5.38118 9.74082 5.46341 9.93934 5.46341 10.1463C5.46341 10.3533 5.38118 10.5519 5.23481 10.6982C5.08844 10.8446 4.88993 10.9268 4.68293 10.9268H0.780488C0.57349 10.9268 0.374969 10.8446 0.2286 10.6982C0.0822297 10.5519 0 10.3533 0 10.1463Z" fill="#0A2540"/>
</svg>
