<svg width="24" height="20" viewBox="0 0 24 20" fill="none" xmlns="http://www.w3.org/2000/svg">
<path d="M22 0H2C0.88 0 0 0.92 0 2V17.2C0 18.32 0.92 19.2 2 19.2H22C23.12 19.2 24 18.28 24 17.2V2C24 0.92 23.08 0 22 0ZM22.4 17.2C22.4 17.44 22.2 17.6 22 17.6H2C1.76 17.6 1.6 17.4 1.6 17.2V2C1.6 1.76 1.8 1.6 2 1.6H22C22.24 1.6 22.4 1.8 22.4 2V17.2Z" fill="#727272"/>
<path d="M3.60005 4.40078C4.04188 4.40078 4.40005 4.04261 4.40005 3.60078C4.40005 3.15895 4.04188 2.80078 3.60005 2.80078C3.15822 2.80078 2.80005 3.15895 2.80005 3.60078C2.80005 4.04261 3.15822 4.40078 3.60005 4.40078Z" fill="#727272"/>
<path d="M6.39998 4.40078C6.8418 4.40078 7.19998 4.04261 7.19998 3.60078C7.19998 3.15895 6.8418 2.80078 6.39998 2.80078C5.95815 2.80078 5.59998 3.15895 5.59998 3.60078C5.59998 4.04261 5.95815 4.40078 6.39998 4.40078Z" fill="#727272"/>
<path d="M8.15998 6.63957C7.83998 6.31957 7.35998 6.31957 7.03998 6.63957L3.83998 9.83957C3.51998 10.1596 3.51998 10.6396 3.83998 10.9596L7.03998 14.1596C7.19998 14.3196 7.39998 14.3996 7.59998 14.3996C7.79998 14.3996 7.99998 14.3196 8.15998 14.1596C8.47998 13.8396 8.47998 13.3596 8.15998 13.0396L5.51998 10.3996L8.15998 7.75957C8.47998 7.43957 8.47998 6.95957 8.15998 6.63957ZM16.96 6.63957C16.64 6.31957 16.16 6.31957 15.84 6.63957C15.52 6.95957 15.52 7.43957 15.84 7.75957L18.48 10.3996L15.84 13.0396C15.52 13.3596 15.52 13.8396 15.84 14.1596C16 14.3196 16.2 14.3996 16.4 14.3996C16.6 14.3996 16.8 14.3196 16.96 14.1596L20.16 10.9596C20.48 10.6396 20.48 10.1596 20.16 9.83957L16.96 6.63957ZM13.88 5.23957C13.48 5.07957 13 5.31957 12.88 5.71957L9.67998 14.9196C9.51998 15.3196 9.75997 15.7996 10.16 15.9196C10.24 15.9996 10.32 15.9996 10.4 15.9996C10.72 15.9996 11.04 15.7996 11.16 15.4796L14.36 6.27957C14.52 5.83957 14.28 5.39957 13.88 5.23957Z" fill="#727272"/>
</svg>
