<svg width="22" height="20" viewBox="0 0 22 20" fill="none" xmlns="http://www.w3.org/2000/svg">
<path d="M11.0259 20C5.50308 20.0151 1.01366 15.5502 0.998573 10.0274C0.983484 4.50455 5.44833 0.0151263 10.9712 3.72266e-05C12.6786 -0.00462109 14.3588 0.427979 15.8517 1.25663L17.1459 1.97495L15.8593 2.70828C12.0619 4.86437 10.7315 9.69057 12.8876 13.4879C13.7177 14.9498 14.9922 16.1091 16.5259 16.7975L17.8768 17.4066L16.6543 18.24C14.9997 19.3831 13.037 19.9968 11.0259 20ZM11.0259 1.66662C6.42352 1.66662 2.69255 5.39759 2.69255 9.99996C2.69255 14.6023 6.42352 18.3333 11.0259 18.3333C12.222 18.3335 13.4037 18.0724 14.4884 17.5683C10.0789 14.6568 8.86454 8.72197 11.776 4.31247C12.3203 3.48809 12.9891 2.75299 13.7584 2.13332C12.8809 1.82268 11.9567 1.66482 11.0259 1.66662ZM17.1092 8.08329L18.0817 10.0275L19.0551 8.08329L20.9992 7.11081L19.0551 6.13746L18.0826 4.19328L17.1092 6.13746L15.1659 7.10995L17.1092 8.08329ZM20.1925 14.1666C19.7323 14.1666 19.3592 14.5397 19.3592 15C19.3592 15.4602 19.7323 15.8333 20.1925 15.8333C20.6528 15.8333 21.0259 15.4602 21.0259 15C21.0259 14.5397 20.6528 14.1666 20.1925 14.1666ZM15.1926 10.8333C14.7323 10.8333 14.3592 11.2064 14.3592 11.6667C14.3592 12.1269 14.7323 12.5 15.1926 12.5C15.6528 12.5 16.0259 12.1269 16.0259 11.6667C16.0259 11.2064 15.6528 10.8333 15.1926 10.8333Z" fill="#0A2540"/>
</svg>
