<svg width="17" height="16" viewBox="0 0 17 16" fill="none" xmlns="http://www.w3.org/2000/svg">
<path d="M16.5713 8C16.5713 12.4115 12.9828 16 8.57129 16C4.15982 16 0.571289 12.4115 0.571289 8C0.571289 3.58853 4.16045 0 8.57129 0C12.9821 0 16.5713 3.58853 16.5713 8ZM1.81063 8C1.81063 11.7273 4.84332 14.7607 8.57129 14.7607C12.2993 14.7607 15.3319 11.7273 15.3319 8C15.3319 4.27203 12.2993 1.23934 8.57129 1.23934C4.84332 1.23934 1.81063 4.27266 1.81063 8Z" fill="#C0C0C0"/>
<path d="M7.71593 4.46196L10.8143 7.56034C11.0547 7.80202 11.0547 8.1924 10.8143 8.43409L7.71593 11.5325C7.48418 11.7314 7.14149 11.7314 6.90974 11.5325C6.65008 11.31 6.61974 10.9184 6.84221 10.6587L9.50058 8.0003L6.84218 5.33571C6.60174 5.09402 6.60174 4.70365 6.84218 4.46196C7.08386 4.22152 7.47427 4.22152 7.71593 4.46196Z" fill="#C0C0C0"/>
</svg>
