<svg width="24" height="18" viewBox="0 0 24 18" fill="none" xmlns="http://www.w3.org/2000/svg">
<path d="M23.1429 6.6C22.5429 2.82857 19.2857 0 15.5143 0H8.57143C4.71429 0 1.45714 2.82857 0.857143 6.6C0.257143 10.6286 0 12.4286 0 13.1143C0 17.3143 5.74286 18.6857 7.62857 14.9143L9.08571 12H14.9143L16.3714 14.9143C18.2571 18.6857 24 17.3143 24 13.1143C24 12.5143 24 13.2857 23.1429 6.6ZM22.2857 13.1143C22.2857 15.5143 18.9429 16.3714 17.9143 14.1429L16.2 10.7143C16.0286 10.4571 15.7714 10.2857 15.4286 10.2857H8.57143C8.22857 10.2857 7.97143 10.4571 7.8 10.8L6.08571 14.2286C5.05714 16.3714 1.71429 15.5143 1.71429 13.1143L2.57143 6.85714C3 3.94286 5.57143 1.71429 8.48571 1.71429H15.4286C18.4286 1.71429 20.9143 3.94286 21.3429 6.85714C21.4286 6.94286 22.3714 13.5429 22.2857 13.1143Z" fill="#727272"/>
<path d="M10.2857 5.99916C10.2857 6.51345 9.94282 6.85631 9.42854 6.85631H8.57139V7.71345C8.57139 8.22773 8.22854 8.57059 7.71425 8.57059C7.19997 8.57059 6.85711 8.22773 6.85711 7.71345V6.85631H5.99997C5.48568 6.85631 5.14282 6.51345 5.14282 5.99916C5.14282 5.48488 5.48568 5.14202 5.99997 5.14202H6.85711V4.28488C6.85711 3.77059 7.19997 3.42773 7.71425 3.42773C8.22854 3.42773 8.57139 3.77059 8.57139 4.28488V5.14202H9.42854C9.94282 5.14202 10.2857 5.48488 10.2857 5.99916ZM15.4285 5.99916C15.4285 6.51345 15.0857 6.85631 14.5714 6.85631C14.0571 6.85631 13.7143 6.51345 13.7143 5.99916C13.7143 5.48488 14.0571 5.14202 14.5714 5.14202C15.0857 5.14202 15.4285 5.48488 15.4285 5.99916ZM17.1428 7.71345C17.1428 8.22773 16.8 8.57059 16.2857 8.57059C15.7714 8.57059 15.4285 8.22773 15.4285 7.71345C15.4285 7.19916 15.7714 6.85631 16.2857 6.85631C16.8 6.85631 17.1428 7.19916 17.1428 7.71345ZM18.8571 5.99916C18.8571 6.51345 18.5142 6.85631 18 6.85631C17.4857 6.85631 17.1428 6.51345 17.1428 5.99916C17.1428 5.48488 17.4857 5.14202 18 5.14202C18.5142 5.14202 18.8571 5.48488 18.8571 5.99916ZM15.4285 4.28488C15.4285 3.77059 15.7714 3.42773 16.2857 3.42773C16.8 3.42773 17.1428 3.77059 17.1428 4.28488C17.1428 4.79916 16.8 5.14202 16.2857 5.14202C15.7714 5.14202 15.4285 4.79916 15.4285 4.28488Z" fill="#727272"/>
</svg>
