<svg width="15" height="15" viewBox="0 0 15 15" fill="none" xmlns="http://www.w3.org/2000/svg">
<path d="M13.5027 6.1906H8.70029V1.38814C8.70029 0.725398 8.1636 0.1875 7.49964 0.1875C6.83569 0.1875 6.299 0.725398 6.299 1.38814V6.1906H1.49654C0.832586 6.1906 0.295898 6.7285 0.295898 7.39125C0.295898 8.05399 0.832586 8.59189 1.49654 8.59189H6.299V13.3943C6.299 14.0571 6.83569 14.595 7.49964 14.595C8.1636 14.595 8.70029 14.0571 8.70029 13.3943V8.59189H13.5027C14.1667 8.59189 14.7034 8.05399 14.7034 7.39125C14.7034 6.7285 14.1667 6.1906 13.5027 6.1906Z" fill="white"/>
</svg>
