<svg width="16" height="16" viewBox="0 0 16 16" fill="none" xmlns="http://www.w3.org/2000/svg">
<path d="M0 8C0 12.4115 3.58853 16 8 16C12.4115 16 16 12.4115 16 8C16 3.58853 12.4108 0 8 0C3.58916 0 0 3.58853 0 8ZM14.7607 8C14.7607 11.7273 11.728 14.7607 8 14.7607C4.27203 14.7607 1.23934 11.7273 1.23934 8C1.23934 4.27203 4.27203 1.23934 8 1.23934C11.728 1.23934 14.7607 4.27266 14.7607 8Z" fill="#C0C0C0"/>
<path d="M8.85536 4.46196L5.75699 7.56034C5.51655 7.80202 5.51655 8.1924 5.75699 8.43409L8.85536 11.5325C9.08711 11.7314 9.4298 11.7314 9.66155 11.5325C9.92121 11.31 9.95155 10.9184 9.72908 10.6587L7.07071 8.0003L9.72911 5.33571C9.96955 5.09402 9.96955 4.70365 9.72911 4.46196C9.48743 4.22152 9.09702 4.22152 8.85536 4.46196Z" fill="#C0C0C0"/>
</svg>
