<svg width="14" height="21" viewBox="0 0 14 21" fill="none" xmlns="http://www.w3.org/2000/svg">
<path d="M6.52114 12.2658C2.79212 12.6028 -0.0488687 15.7538 0.000637183 19.4976V19.6875C0.000637183 20.4124 0.588268 21 1.31314 21C2.03801 21 2.62564 20.4124 2.62564 19.6875V19.4451C2.58618 17.1464 4.28259 15.1862 6.56314 14.8952C8.97047 14.6564 11.1155 16.4145 11.3543 18.8218C11.3684 18.9641 11.3755 19.107 11.3756 19.25V19.6875C11.3756 20.4124 11.9633 21 12.6881 21C13.413 21 14.0006 20.4124 14.0006 19.6875V19.25C13.9964 15.3796 10.8553 12.2456 6.98502 12.2498C6.83026 12.25 6.67555 12.2554 6.52114 12.2658ZM7.00065 10.5C9.90013 10.5 12.2506 8.14948 12.2506 5.25C12.2506 2.35052 9.90013 0 7.00065 0C4.10117 0 1.75065 2.35052 1.75065 5.25C1.75352 8.14829 4.10236 10.4971 7.00065 10.5ZM7.00065 2.625C8.45039 2.625 9.62565 3.80026 9.62565 5.25C9.62565 6.69974 8.45039 7.875 7.00065 7.875C5.55091 7.875 4.37565 6.69974 4.37565 5.25C4.37565 3.80026 5.55091 2.625 7.00065 2.625Z" fill="#727272"/>
</svg>
