<svg width="18" height="18" viewBox="0 0 18 18" fill="none" xmlns="http://www.w3.org/2000/svg">
<path d="M17.8199 16.9129L14.7121 13.8045C16.1192 12.1627 16.8357 10.0397 16.7112 7.88098C16.5867 5.72229 15.6309 3.69574 14.0443 2.22661C12.4578 0.757494 10.3638 -0.0399817 8.20194 0.001544C6.04006 0.0430697 3.9783 0.920369 2.44933 2.44933C0.920369 3.9783 0.0430697 6.04006 0.001544 8.20194C-0.0399817 10.3638 0.757494 12.4578 2.22661 14.0443C3.69574 15.6309 5.72229 16.5867 7.88098 16.7112C10.0397 16.8357 12.1627 16.1192 13.8045 14.7121L16.9129 17.8199C17.0339 17.9368 17.1959 18.0014 17.3641 18C17.5323 17.9985 17.6932 17.9311 17.8121 17.8121C17.9311 17.6932 17.9985 17.5323 18 17.3641C18.0014 17.1959 17.9368 17.0339 17.8199 16.9129ZM1.33027 8.38618C1.33027 6.99066 1.74409 5.62647 2.51941 4.46613C3.29472 3.30579 4.3967 2.40142 5.686 1.86737C6.9753 1.33333 8.39401 1.1936 9.76272 1.46585C11.1314 1.7381 12.3887 2.41011 13.3755 3.3969C14.3623 4.38369 15.0343 5.64093 15.3065 7.00964C15.5788 8.37836 15.439 9.79707 14.905 11.0864C14.3709 12.3757 13.4666 13.4776 12.3062 14.253C11.1459 15.0283 9.78171 15.4421 8.38618 15.4421C6.51552 15.4399 4.7221 14.6958 3.39934 13.373C2.07658 12.0503 1.33248 10.2569 1.33027 8.38618Z" fill="#29CCFE"/>
<path d="M10.2415 8.2244C10.5885 7.86103 10.8211 7.40378 10.9106 6.9094C11 6.41501 10.9424 5.90523 10.7448 5.44331C10.5472 4.98139 10.2183 4.58765 9.79892 4.31094C9.37957 4.03422 8.88821 3.88672 8.38579 3.88672C7.88337 3.88672 7.39201 4.03422 6.97266 4.31094C6.55331 4.58765 6.22442 4.98139 6.02681 5.44331C5.82919 5.90523 5.77154 6.41501 5.86101 6.9094C5.95048 7.40378 6.18312 7.86103 6.53008 8.2244C5.92684 8.55641 5.42372 9.04417 5.07317 9.63683C4.72263 10.2295 4.53751 10.9053 4.53711 11.5939C4.53711 11.764 4.60469 11.9272 4.72498 12.0475C4.84528 12.1678 5.00843 12.2354 5.17856 12.2354C5.34868 12.2354 5.51183 12.1678 5.63213 12.0475C5.75242 11.9272 5.82 11.764 5.82 11.5939C5.82 10.9134 6.09033 10.2608 6.5715 9.77963C7.05268 9.29846 7.7053 9.02813 8.38579 9.02813C9.06628 9.02813 9.71889 9.29846 10.2001 9.77963C10.6813 10.2608 10.9516 10.9134 10.9516 11.5939C10.9516 11.764 11.0192 11.9272 11.1394 12.0475C11.2597 12.1678 11.4229 12.2354 11.593 12.2354C11.7631 12.2354 11.9263 12.1678 12.0466 12.0475C12.1669 11.9272 12.2345 11.764 12.2345 11.5939C12.2341 10.9053 12.0489 10.2295 11.6984 9.63683C11.3479 9.04417 10.8447 8.55641 10.2415 8.2244ZM7.1029 6.46235C7.1029 6.20862 7.17814 5.96058 7.3191 5.74961C7.46007 5.53864 7.66043 5.37421 7.89485 5.27711C8.12926 5.18001 8.38721 5.1546 8.63607 5.20411C8.88493 5.25361 9.11351 5.37579 9.29293 5.55521C9.47235 5.73462 9.59453 5.96321 9.64403 6.21207C9.69353 6.46092 9.66813 6.71887 9.57103 6.95329C9.47393 7.18771 9.3095 7.38807 9.09853 7.52903C8.88756 7.67 8.63952 7.74524 8.38579 7.74524C8.04554 7.74524 7.71924 7.61008 7.47865 7.36949C7.23806 7.1289 7.1029 6.80259 7.1029 6.46235Z" fill="#29CCFE"/>
</svg>
