<svg width="18" height="19" viewBox="0 0 18 19" fill="none" xmlns="http://www.w3.org/2000/svg">
<path d="M6.48877 0.785156C10.0697 0.785156 12.9775 3.69296 12.9775 7.27392C12.9775 10.8549 10.0697 13.7627 6.48877 13.7627C2.90781 13.7627 0 10.8549 0 7.27392C0 3.69296 2.90781 0.785156 6.48877 0.785156ZM6.48877 2.04105C3.60106 2.04105 1.25589 4.38621 1.25589 7.27392C1.25589 10.1616 3.60106 12.5068 6.48877 12.5068C9.37648 12.5068 11.7216 10.1616 11.7216 7.27392C11.7216 4.38621 9.37648 2.04105 6.48877 2.04105ZM12.0792 13.1917L12.4065 12.8643C12.5426 12.7282 12.7041 12.6203 12.8819 12.5467C13.0597 12.473 13.2502 12.4351 13.4426 12.4351C13.6351 12.4351 13.8256 12.473 14.0034 12.5467C14.1812 12.6203 14.3427 12.7282 14.4787 12.8643L17.5666 15.9521C17.8441 16.2305 18 16.6077 18 17.0008C18 17.3939 17.8441 17.771 17.5666 18.0495L17.2643 18.3517C17.1267 18.4896 16.9632 18.5989 16.7833 18.6735C16.6033 18.7481 16.4104 18.7865 16.2156 18.7865C16.0208 18.7865 15.828 18.7481 15.648 18.6735C15.4681 18.5989 15.3046 18.4896 15.167 18.3517L12.0792 15.2639C11.9431 15.1278 11.8351 14.9663 11.7615 14.7885C11.6879 14.6108 11.65 14.4202 11.65 14.2278C11.65 14.0354 11.6879 13.8448 11.7615 13.667C11.8351 13.4893 11.9431 13.3277 12.0792 13.1917ZM12.9667 14.0792C12.9277 14.1187 12.9058 14.1719 12.9058 14.2274C12.9058 14.2828 12.9277 14.3361 12.9667 14.3756L16.0553 17.4642C16.0983 17.5062 16.156 17.5296 16.2161 17.5296C16.2761 17.5296 16.3338 17.5062 16.3768 17.4642L16.6791 17.162C16.721 17.119 16.7445 17.0613 16.7445 17.0012C16.7445 16.9412 16.721 16.8835 16.6791 16.8405L13.5904 13.7518C13.5509 13.7128 13.4977 13.691 13.4422 13.691C13.3867 13.691 13.3335 13.7128 13.294 13.7518L12.9667 14.0792Z" fill="#29CCFE"/>
<path d="M12.7934 12.6916C12.8517 12.7498 12.8979 12.819 12.9295 12.8952C12.961 12.9713 12.9772 13.0529 12.9772 13.1353C12.9772 13.2177 12.961 13.2993 12.9295 13.3755C12.8979 13.4516 12.8517 13.5208 12.7934 13.5791C12.7352 13.6373 12.666 13.6836 12.5898 13.7151C12.5137 13.7466 12.4321 13.7629 12.3497 13.7629C12.2673 13.7629 12.1857 13.7466 12.1095 13.7151C12.0334 13.6836 11.9642 13.6373 11.9059 13.5791L10.2314 11.9045C10.1731 11.8463 10.1269 11.7771 10.0954 11.7009C10.0638 11.6248 10.0476 11.5432 10.0476 11.4608C10.0476 11.3784 10.0638 11.2968 10.0954 11.2206C10.1269 11.1445 10.1731 11.0753 10.2314 11.017C10.2897 10.9588 10.3589 10.9125 10.435 10.881C10.5111 10.8495 10.5928 10.8332 10.6752 10.8332C10.7576 10.8332 10.8392 10.8495 10.9153 10.881C10.9915 10.9125 11.0606 10.9588 11.1189 11.017L12.7934 12.6916ZM3.97708 8.94901C3.97708 9.11555 3.91092 9.27527 3.79316 9.39304C3.6754 9.5108 3.51568 9.57696 3.34914 9.57696C3.1826 9.57696 3.02287 9.5108 2.90511 9.39304C2.78735 9.27527 2.72119 9.11555 2.72119 8.94901V7.27449C2.72119 7.10795 2.78735 6.94823 2.90511 6.83047C3.02287 6.71271 3.1826 6.64655 3.34914 6.64655C3.51568 6.64655 3.6754 6.71271 3.79316 6.83047C3.91092 6.94823 3.97708 7.10795 3.97708 7.27449V8.94901ZM6.07023 8.94901C6.07023 9.11555 6.00407 9.27527 5.88631 9.39304C5.76855 9.5108 5.60883 9.57696 5.44229 9.57696C5.27575 9.57696 5.11603 9.5108 4.99826 9.39304C4.8805 9.27527 4.81434 9.11555 4.81434 8.94901V4.76271C4.81434 4.59617 4.8805 4.43645 4.99826 4.31869C5.11603 4.20092 5.27575 4.13477 5.44229 4.13477C5.60883 4.13477 5.76855 4.20092 5.88631 4.31869C6.00407 4.43645 6.07023 4.59617 6.07023 4.76271V8.94901ZM8.16338 8.94901C8.16338 9.11555 8.09723 9.27527 7.97946 9.39304C7.8617 9.5108 7.70198 9.57696 7.53544 9.57696C7.3689 9.57696 7.20918 9.5108 7.09141 9.39304C6.97365 9.27527 6.90749 9.11555 6.90749 8.94901V6.43723C6.90749 6.27069 6.97365 6.11097 7.09141 5.99321C7.20918 5.87544 7.3689 5.80929 7.53544 5.80929C7.70198 5.80929 7.8617 5.87544 7.97946 5.99321C8.09723 6.11097 8.16338 6.27069 8.16338 6.43723V8.94901ZM10.2565 8.94901C10.2565 9.11555 10.1904 9.27527 10.0726 9.39304C9.95485 9.5108 9.79513 9.57696 9.62859 9.57696C9.46205 9.57696 9.30233 9.5108 9.18457 9.39304C9.0668 9.27527 9.00064 9.11555 9.00064 8.94901V5.59997C9.00064 5.43343 9.0668 5.27371 9.18457 5.15595C9.30233 5.03818 9.46205 4.97203 9.62859 4.97203C9.79513 4.97203 9.95485 5.03818 10.0726 5.15595C10.1904 5.27371 10.2565 5.43343 10.2565 5.59997V8.94901Z" fill="#29CCFE"/>
</svg>
