<svg width="15" height="14" viewBox="0 0 15 14" fill="none" xmlns="http://www.w3.org/2000/svg">
<path d="M14.8342 1.68279C14.6124 1.46045 14.2531 1.45987 14.0306 1.68126L9.71637 5.97803L8.46958 4.73125C8.2476 4.50947 7.88816 4.50926 7.66618 4.73125L2.60936 9.78809C2.38738 10.0099 2.38738 10.3697 2.60936 10.5915C2.66203 10.6444 2.72465 10.6863 2.79359 10.7149C2.86253 10.7434 2.93645 10.7581 3.01108 10.758C3.15633 10.758 3.302 10.7025 3.41277 10.5915L8.0679 5.93658L9.31392 7.1824C9.5357 7.40418 9.89423 7.40438 10.1166 7.18334L14.8325 2.48637C15.0548 2.26497 15.0556 1.90512 14.8342 1.68279Z" fill="#29CCFE"/>
<path d="M14.4129 12.5H1.13637V0.568183C1.13637 0.254355 0.88201 0 0.568183 0C0.254355 0 0 0.254355 0 0.568183V13.0682C0 13.382 0.254355 13.6364 0.568183 13.6364H14.4129C14.7267 13.6364 14.9811 13.382 14.9811 13.0682C14.9811 12.7543 14.7267 12.5 14.4129 12.5ZM14.4318 1.49622H10.1705C9.85663 1.49622 9.60227 1.75057 9.60227 2.0644C9.60227 2.37823 9.85663 2.63258 10.1705 2.63258H13.8636V6.32595C13.8636 6.63957 14.118 6.89413 14.4318 6.89413C14.7457 6.89413 15 6.63957 15 6.32574V2.0644C15 1.75057 14.7456 1.49622 14.4318 1.49622Z" fill="#29CCFE"/>
</svg>
