<svg width="14" height="14" viewBox="0 0 14 14" fill="none" xmlns="http://www.w3.org/2000/svg">
<path d="M11.7545 4.54009L2.47288 0.174254C2.16536 0.0237703 1.81979 -0.0310603 1.48079 0.0168436C1.1418 0.0647475 0.824946 0.213186 0.571164 0.442987C0.315044 0.67216 0.133722 0.973026 0.0507312 1.30654C-0.0322601 1.64005 -0.0130888 1.9908 0.105757 2.31328C0.11876 2.34796 2.33039 6.50357 2.33039 6.50357C2.33039 6.50357 0.160479 10.6559 0.148017 10.6901C0.0297922 11.0127 0.0112621 11.3634 0.0948313 11.6968C0.178401 12.0301 0.360212 12.3306 0.616675 12.5593C0.932115 12.8433 1.34137 13.0007 1.76583 13.0014C2.02048 13.0014 2.27567 12.9445 2.51298 12.8275L11.755 8.46435C12.1295 8.29126 12.4463 8.01402 12.6674 7.66574C12.8886 7.31746 13.0048 6.91288 13.0022 6.50032C13.0043 6.08823 12.8877 5.68424 12.6665 5.33657C12.4453 4.9889 12.1287 4.71222 11.7545 4.53954V4.54009ZM1.62497 1.7238C1.6228 1.70322 1.62876 1.67829 1.65856 1.65175C1.70624 1.60894 1.74362 1.62628 1.76421 1.63712L1.77559 1.64308L10.3761 5.68816H3.73745L1.62497 1.7238ZM1.80701 11.3641C1.78751 11.3744 1.74958 11.3928 1.70244 11.35C1.6721 11.3229 1.66669 11.2969 1.66885 11.2763L3.74232 7.31356H10.3881L1.80755 11.3646L1.80701 11.3641Z" fill="#31C6FE"/>
</svg>
