<svg width="15" height="15" viewBox="0 0 15 15" fill="none" xmlns="http://www.w3.org/2000/svg">
<path d="M14.725 13.4032L11.8215 10.4991C13.994 7.59619 13.4019 3.48185 10.499 1.30935C7.59619 -0.863145 3.48181 -0.271022 1.30935 2.63184C-0.863118 5.53471 -0.271053 9.64905 2.63181 11.8215C4.96384 13.5668 8.167 13.5668 10.499 11.8215L13.4031 14.7262C13.7681 15.0913 14.3599 15.0913 14.725 14.7262C15.09 14.3612 15.09 13.7694 14.725 13.4044V13.4032ZM1.91695 6.58895C1.91695 4.00869 4.00865 1.91698 6.58891 1.91698C9.16917 1.91698 11.2609 4.00869 11.2609 6.58895C11.2609 9.1692 9.16917 11.2609 6.58891 11.2609C4.0098 11.2582 1.9197 9.16803 1.91695 6.58895Z" fill="#0A2540"/>
</svg>
