<svg width="24" height="26" viewBox="0 0 24 26" fill="none" xmlns="http://www.w3.org/2000/svg">
<path d="M23.4472 20.3327L22.4012 19.7457C22.5613 19.2334 22.6787 18.6997 22.6787 18.1447C22.6787 17.5897 22.5719 17.0453 22.4012 16.5437L23.4472 15.9566C23.9595 15.6685 24.1409 15.0174 23.8634 14.5051C23.5752 13.9927 22.9242 13.8006 22.4118 14.0888L21.3659 14.6758C20.5999 13.7807 19.5612 13.162 18.4093 12.9147V11.7407C18.4093 11.1536 17.929 10.6733 17.342 10.6733C16.755 10.6733 16.2747 11.1536 16.2747 11.7407V12.9147C15.1006 13.1496 14.076 13.8006 13.3182 14.6758L12.2722 14.0888C12.1497 14.0199 12.0149 13.976 11.8753 13.9597C11.7358 13.9433 11.5944 13.9548 11.4594 13.9935C11.3243 14.0323 11.1983 14.0974 11.0887 14.1852C10.979 14.273 10.8879 14.3818 10.8206 14.5051C10.5324 15.0174 10.7139 15.6685 11.2369 15.9566L12.2828 16.5437C12.1227 17.056 12.0053 17.5897 12.0053 18.1447C12.0053 18.6997 12.1121 19.244 12.2828 19.7457L11.2369 20.3327C10.7245 20.6209 10.5431 21.272 10.8206 21.7843C11.0127 22.1365 11.3756 22.3286 11.7492 22.3286C11.9306 22.3286 12.1014 22.2859 12.2722 22.1899L13.3182 21.6028C14.076 22.4781 15.1006 23.1185 16.2747 23.3639V24.538C16.2747 25.125 16.755 25.6053 17.342 25.6053C17.929 25.6053 18.4093 25.125 18.4093 24.538V23.3639C19.5834 23.1291 20.608 22.4781 21.3659 21.6028L22.4118 22.1899C22.5719 22.2859 22.7534 22.3286 22.9348 22.3286C23.3084 22.3286 23.6713 22.1365 23.8634 21.7843C24.1516 21.272 23.9701 20.6209 23.4472 20.3327ZM17.3313 21.3467C15.5702 21.3467 14.1293 19.9058 14.1293 18.1447C14.1293 16.3836 15.5702 14.9427 17.3313 14.9427C19.0924 14.9427 20.5333 16.3836 20.5333 18.1447C20.5333 19.9058 19.0924 21.3467 17.3313 21.3467ZM10.6818 10.9402L11.7278 11.5272C11.8879 11.6233 12.0694 11.666 12.2508 11.666C12.6244 11.666 12.9873 11.4738 13.1794 11.1216C13.4676 10.6093 13.2861 9.95823 12.7631 9.67005L11.7172 9.08301C11.8773 8.57069 11.9947 8.03703 11.9947 7.48201C11.9947 6.927 11.8879 6.38266 11.7172 5.88101L12.7631 5.29398C13.2755 5.0058 13.4569 4.35472 13.1794 3.8424C12.8912 3.33008 12.2401 3.13796 11.7278 3.42614L10.6818 4.01318C9.91591 3.11807 8.87717 2.49932 7.72533 2.25207V1.06733C7.72533 0.4803 7.24503 0 6.65799 0C6.07096 0 5.59066 0.4803 5.59066 1.06733V2.2414C4.41659 2.47621 3.39195 3.12729 2.63414 4.0025L1.58816 3.41547C1.46573 3.34657 1.33084 3.30267 1.19132 3.28632C1.05179 3.26996 0.910405 3.28148 0.775367 3.32021C0.640328 3.35893 0.514325 3.42409 0.404669 3.5119C0.295013 3.59971 0.203888 3.70842 0.136581 3.83173C-0.151599 4.34405 0.029848 4.99512 0.552842 5.2833L1.59883 5.87034C1.43873 6.38266 1.32132 6.91632 1.32132 7.47134C1.32132 8.02635 1.42806 8.57069 1.59883 9.07234L0.552842 9.65937C0.0405214 9.94755 -0.140925 10.5986 0.136581 11.1109C0.328702 11.4632 0.691595 11.6553 1.06516 11.6553C1.24661 11.6553 1.41738 11.6126 1.58816 11.5165L2.63414 10.9295C3.39195 11.8047 4.41659 12.4451 5.59066 12.6906V13.8647C5.59066 14.4517 6.07096 14.932 6.65799 14.932C7.24503 14.932 7.72533 14.4517 7.72533 13.8647V12.6906C8.89939 12.4558 9.92404 11.8047 10.6818 10.9295V10.9402ZM6.65799 10.6733C4.89689 10.6733 3.45599 9.23244 3.45599 7.47134C3.45599 5.71024 4.89689 4.26934 6.65799 4.26934C8.41909 4.26934 9.85999 5.71024 9.85999 7.47134C9.85999 9.23244 8.41909 10.6733 6.65799 10.6733Z" fill="#727272"/>
</svg>
