<svg width="11" height="6" viewBox="0 0 11 6" fill="none" xmlns="http://www.w3.org/2000/svg">
<path d="M5.25037 5.99999C5.15172 6.00056 5.05392 5.98165 4.96259 5.94434C4.87126 5.90704 4.78819 5.85207 4.71815 5.7826L0.220456 1.28491C0.0793003 1.14375 0 0.952306 0 0.752682C0 0.553059 0.0793003 0.361611 0.220456 0.220456C0.361611 0.0793003 0.553059 0 0.752682 0C0.952306 0 1.14375 0.0793003 1.28491 0.220456L5.25037 4.19342L9.21584 0.227952C9.35924 0.105145 9.5437 0.0409732 9.73236 0.0482603C9.92102 0.0555475 10.1 0.133757 10.2335 0.267259C10.367 0.400762 10.4452 0.579724 10.4525 0.768384C10.4598 0.957044 10.3956 1.14151 10.2728 1.28491L5.7751 5.7826C5.63548 5.92109 5.44703 5.99916 5.25037 5.99999Z" fill="#42B6FE"/>
</svg>
