<svg width="20" height="20" viewBox="0 0 20 20" fill="none" xmlns="http://www.w3.org/2000/svg">
<path d="M10.962 2C12.8121 2 14.5864 2.7375 15.8946 4.05025C17.2029 5.36301 17.9378 7.14348 17.9378 9C17.9378 9.26522 18.0428 9.51957 18.2297 9.70711C18.4166 9.89464 18.6701 10 18.9344 10C19.1987 10 19.4521 9.89464 19.639 9.70711C19.8259 9.51957 19.9309 9.26522 19.9309 9C19.9309 6.61305 18.986 4.32387 17.304 2.63604C15.622 0.948211 13.3407 0 10.962 0C10.6977 0 10.4442 0.105357 10.2573 0.292893C10.0704 0.48043 9.96545 0.734784 9.96545 1C9.96545 1.26522 10.0704 1.51957 10.2573 1.70711C10.4442 1.89464 10.6977 2 10.962 2ZM19.6818 13.91C19.627 13.7495 19.5323 13.6056 19.4068 13.4919C19.2813 13.3781 19.129 13.2984 18.9643 13.26L12.985 11.89C12.8227 11.8531 12.6537 11.8575 12.4936 11.9029C12.3335 11.9484 12.1872 12.0333 12.0682 12.15C11.9286 12.28 11.9187 12.29 11.2709 13.53C9.12157 12.5362 7.39934 10.8009 6.41775 8.64C7.68336 8 7.69333 8 7.82288 7.85C7.93919 7.73056 8.02383 7.58379 8.06909 7.42308C8.11435 7.26238 8.11878 7.09286 8.08198 6.93L6.71671 1C6.67849 0.834696 6.59898 0.681871 6.48566 0.555912C6.37234 0.429952 6.22894 0.335002 6.06896 0.28C5.83623 0.196589 5.59591 0.1363 5.35145 0.0999999C5.09957 0.0413952 4.84254 0.00789934 4.58411 0C3.36833 0 2.20234 0.484642 1.34265 1.34731C0.482967 2.20998 0 3.38 0 4.6C0.00527363 8.68271 1.62386 12.5967 4.5008 15.4836C7.37774 18.3705 11.2782 19.9947 15.3468 20C15.9488 20 16.5449 19.881 17.1011 19.6498C17.6572 19.4187 18.1626 19.0798 18.5882 18.6527C19.0139 18.2255 19.3516 17.7184 19.582 17.1603C19.8123 16.6022 19.9309 16.0041 19.9309 15.4C19.9312 15.1455 19.9112 14.8913 19.8711 14.64C19.8292 14.3916 19.7659 14.1474 19.6818 13.91ZM15.3468 18C11.806 17.9974 8.41095 16.5847 5.90721 14.0723C3.40348 11.5599 1.99573 8.15309 1.99309 4.6C1.99571 3.91125 2.26954 3.25146 2.75488 2.76443C3.24022 2.27741 3.89773 2.00263 4.58411 2H4.91297L5.97927 6.64L5.44114 6.92C4.58411 7.37 3.90646 7.73 4.26521 8.51C4.84941 10.1696 5.79468 11.6777 7.03235 12.9249C8.27003 14.172 9.76901 15.1269 11.4204 15.72C12.2575 16.06 12.5864 15.43 13.0348 14.56L13.3238 14.01L17.9378 15.07V15.4C17.9352 16.0888 17.6614 16.7485 17.176 17.2356C16.6907 17.7226 16.0332 17.9974 15.3468 18Z" fill="#4AB0FE"/>
</svg>
